<?xml version="1.0" encoding="UTF-8" standalone="no"?>
<!-- Created with Inkscape (http://www.inkscape.org/) -->

<svg
   xmlns:dc="http://purl.org/dc/elements/1.1/"
   xmlns:cc="http://creativecommons.org/ns#"
   xmlns:rdf="http://www.w3.org/1999/02/22-rdf-syntax-ns#"
   xmlns:svg="http://www.w3.org/2000/svg"
   xmlns="http://www.w3.org/2000/svg"
   xmlns:sodipodi="http://sodipodi.sourceforge.net/DTD/sodipodi-0.dtd"
   xmlns:inkscape="http://www.inkscape.org/namespaces/inkscape"
   width="403.59616"
   height="199.97986"
   id="svg2"
   version="1.1"
   inkscape:version="0.48.4 r9939"
   sodipodi:docname="Hedron_Signiture_Vector.svg"
   inkscape:export-filename="C:\Users\Owner\Pictures\Drawing\Hedron\art\Hedron_Signiture_Vector.png"
   inkscape:export-xdpi="300"
   inkscape:export-ydpi="300">
  <defs
     id="defs4" />
  <sodipodi:namedview
     id="base"
     pagecolor="#ffffff"
     bordercolor="#666666"
     borderopacity="1.0"
     inkscape:pageopacity="0.0"
     inkscape:pageshadow="2"
     inkscape:zoom="1.4"
     inkscape:cx="42.214603"
     inkscape:cy="-8.015713"
     inkscape:document-units="px"
     inkscape:current-layer="layer1"
     showgrid="false"
     inkscape:window-width="1920"
     inkscape:window-height="1005"
     inkscape:window-x="-9"
     inkscape:window-y="-9"
     inkscape:window-maximized="1"
     fit-margin-top="0"
     fit-margin-left="0"
     fit-margin-right="0"
     fit-margin-bottom="0" />
  <metadata
     id="metadata7">
    <rdf:RDF>
      <cc:Work
         rdf:about="">
        <dc:format>image/svg+xml</dc:format>
        <dc:type
           rdf:resource="http://purl.org/dc/dcmitype/StillImage" />
        <dc:title />
      </cc:Work>
    </rdf:RDF>
  </metadata>
  <g
     inkscape:label="Layer 1"
     inkscape:groupmode="layer"
     id="layer1"
     transform="translate(-88.291125,-401.54977)">
    <g
       id="g2996"
       transform="matrix(0.4150575,0,0,0.4150575,148.1461,284.54219)"
       style="fill:#ffffff;fill-opacity:1;stroke:#000000;stroke-opacity:0.13445378999999999">
      <path
         style="fill:#ffffff;fill-opacity:1;stroke:#000000;stroke-opacity:0.13445378999999999"
         d="m -52.10813,758.30571 c -2.52786,-2.70249 -4.85226,-6.18999 -5.16532,-7.75 -0.31307,-1.56001 -1.04665,-4.18639 -1.6302,-5.83639 -2.55431,-7.22245 -3.95874,-17.46424 -6.44498,-47 -0.32408,-3.85 -1.46029,-12.4 -2.52492,-19 -1.74031,-10.7888 -4.8978,-40.54251 -4.9081,-46.25 -0.005,-3.00196 -1.21771,-2.8655 -11.62838,1.30893 -10.08432,4.04357 -20.2646,9.83094 -28.53884,16.22402 l -5.66316,4.37563 -9.83684,-2.03383 c -8.38671,-1.73402 -10.24224,-2.48512 -12.58684,-5.09507 -2.95301,-3.28722 -3.48693,-7.15194 -1.46456,-10.60118 2.8009,-4.77708 9.65349,-11.9014 15.96028,-16.59317 9.25028,-6.8815 18.35302,-11.16958 35.5926,-16.76681 l 14.66168,-4.76025 -0.19866,-7.12685 c -0.30975,-11.11207 -6.92696,-64.08262 -11.3906,-91.18142 -3.84191,-23.32424 -10.43951,-59.27138 -15.04997,-82 -3.43286,-16.92329 -17.25874,-65.34831 -26.91894,-94.28331 -4.918,-14.73082 -8.94183,-27.94086 -8.94183,-29.35565 0,-2.30607 1.87657,-5.38682 6.46348,-10.61104 11.24713,-6.17203 32.789416,7.50401 37.09512,13.88359 11.93308,18.30802 18.68927,34.30196 30.14675,71.36641 8.70541,28.16165 11.31847,38.49228 17.32658,68.5 7.61868,38.05174 14.67185,82.03372 17.9609,112 3.95422,36.02664 3.78217,34.60834 4.25551,35.08168 0.22908,0.22907 5.10441,-0.23907 10.83408,-1.04033 5.72967,-0.80125 15.27008,-1.76809 21.20092,-2.14852 5.93084,-0.38044 10.93645,-0.96196 11.12359,-1.29227 0.18714,-0.33031 -0.96541,-6.22556 -2.56122,-13.10056 -1.59582,-6.875 -5.83474,-26.225 -9.41984,-43 -3.5851,-16.775 -8.3285,-38.15 -10.54089,-47.5 -2.21239,-9.35 -5.57925,-24.425 -7.48193,-33.5 -1.90267,-9.075 -5.22042,-24.375 -7.37278,-34 -2.15236,-9.625 -5.53557,-26.275 -7.51825,-37 -4.67051,-25.26445 -6.20636,-32.86364 -8.48848,-42 -5.8027,-23.23088 -4.38597,-37.02441 3.79904,-36.98813 5.17677,0.023 13.47079,2.89485 16.41626,5.68431 2.98164,2.82371 19.18176,33.97491 24.18153,46.49865 1.47001,3.68216 5.15461,14.25716 8.188,23.5 4.89054,14.90164 8.68388,29.57562 24.3786,94.30517 4.51459,18.61944 24.42902,108.24957 25.48473,114.70066 0.67377,4.11722 0.78019,4.21282 5.35786,4.81309 2.56874,0.33684 12.99544,2.10701 23.17044,3.93372 10.175,1.82671 18.725,3.10781 19,2.84689 0.275,-0.26092 -2.57237,-3.38803 -6.32748,-6.94914 -4.69894,-4.45617 -9.37534,-7.69315 -15,-10.38293 -10.35818,-4.9534 -15.67252,-9.24261 -15.67252,-12.64931 0,-1.61038 1.81511,-4.63661 4.95466,-8.26064 6.55519,-7.56676 10.62415,-8.87554 31.54534,-10.14655 8.8,-0.53463 27.925,-1.8612 42.5,-2.94796 31.67532,-2.36179 40.35864,-2.44822 46,-0.45783 2.3383,0.825 6.57988,1.5 9.42573,1.5 5.73982,0 7.57427,1.18167 7.57427,4.879 0,2.33775 -5.02852,8.00311 -8.95995,10.09468 -3.09555,1.64687 -32.36257,4.98631 -57.79005,6.59399 -5.6375,0.35644 -10.24352,0.93703 -10.23559,1.2902 0.008,0.35317 2.14542,1.83526 4.75,3.29353 12.126,6.78921 24.38791,19.96047 32.75717,35.18648 l 3.6021,6.55321 7.68816,1.64362 c 16.56275,3.54086 24.98159,5.64949 43.96501,11.01172 14.84587,4.1935 21.63962,6.6511 27.47315,9.93825 4.2625,2.40189 7.74761,4.06292 7.74469,3.69119 -0.003,-0.37173 -2.07453,-4.95087 -4.60359,-10.17587 -2.52907,-5.225 -7.29592,-15.8 -10.59302,-23.5 -12.47237,-29.12781 -21.99705,-47.02342 -29.7031,-55.80819 -16.16584,-15.85923 17.23377,-17.36527 26.49249,-13.98715 4.80797,2.56148 9.94838,2.88814 33.91253,14.64492 21.62032,10.60689 35.62766,18.50841 46.68639,26.33571 5.08383,3.59831 9.89279,6.7916 10.68657,7.0962 1.24368,0.47725 1.34556,-2.47689 0.73674,-21.36383 -0.38858,-12.05471 -1.3635,-30.24266 -2.16649,-40.41766 -0.80299,-10.175 -1.89195,-31.55 -2.41991,-47.5 -0.52795,-15.95 -1.46983,-35.89577 -2.09306,-44.32394 -0.62322,-8.42816 -0.94338,-24.40316 -0.71145,-35.5 0.46614,-22.3034 1.13233,-25.49716 6.78588,-32.53225 4.37338,-5.44208 8.41296,-6.58058 16.49533,-4.64899 3.3,0.78867 7.21633,1.44997 8.70295,1.46956 4.13779,0.0545 7.77924,2.11649 8.44877,4.78408 0.47188,1.88012 -0.21855,3.2477 -3.16081,6.26085 l -3.76456,3.85526 0.70651,6.31772 c 0.38858,3.47474 1.81538,11.71771 3.17066,18.31771 3.46291,16.86371 10.2292,63.96803 11.90998,82.91264 0.77647,8.75195 1.76609,16.22511 2.19914,16.60702 1.26967,1.11975 28.68219,8.52869 57.78736,15.61852 51.69047,12.59147 64.53443,17.08125 71.47366,24.9846 2.8437,3.23879 3.17877,4.20413 2.69951,7.77728 -0.35519,2.64808 -1.35876,4.69619 -2.86017,5.83706 -1.27215,0.96665 -3.70111,3.15006 -5.39769,4.85202 -4.14278,4.15592 -8.29294,4.55199 -57.19558,5.45842 -39.25439,0.72759 -39.27909,0.72939 -37.5,2.73989 0.97915,1.1065 9.63596,8.56435 19.23736,16.57299 41.23388,34.3937 51.65382,44.55436 86.04048,83.89954 7.1005,8.1244 20.50557,21.58075 31.15528,31.27448 21.76429,19.8106 23.29523,22.02986 22.68213,32.88017 -0.3754,6.64368 -0.51379,6.9516 -5.14876,11.45627 -9.14963,8.86573 -21.32625,2.18931 -31.43622,-1.95927 -1.7875,-0.7586 -3.25,-2.11035 -3.25,-3.00388 -23.40942,-24.00662 -53.39571,-48.38001 -73.51387,-71.72631 -6.04237,-7.05021 -13.95842,-16.27521 -17.59123,-20.5 -6.13829,-7.13857 -50.64829,-53.33019 -52.00264,-53.96735 -0.33426,-0.15726 -0.86647,11.31774 -1.1827,25.5 -0.85641,38.40882 -7.35792,95.23109 -12.65917,110.63945 -2.86279,8.32085 -5.01104,11.37246 -12.65668,17.97899 -21.7979,10.91308 -42.60949,-1.56045 -50.96299,-15.52382 -6.97117,-11.74408 -36.12686,-68.65303 -40.88774,-79.80871 -2.31883,-5.43348 -2.90758,-6.17184 -3.5882,-4.5 -0.44781,1.1 -0.84584,3.6324 -0.88449,5.62756 -0.1074,5.54283 -1.87513,6.43836 -9.81953,4.97455 -3.65741,-0.67391 -9.59755,-2.4642 -13.2003,-3.97844 -7.09557,-2.98227 -52.58949,-14.91797 -53.47727,-14.0302 -0.29792,0.29792 0.18733,3.88627 1.07833,7.9741 1.06194,4.87208 1.65935,12.77193 1.73424,22.93243 0.11931,16.18787 -0.84869,22.5948 -4.65172,30.78846 -1.09475,2.35865 -1.82026,4.43781 -1.61225,4.62034 0.20802,0.18253 7.57821,1.29894 16.37821,2.4809 14.4163,1.93631 39.561,6.05047 48.39972,7.91914 5.21607,1.10277 5.77854,2.8653 3.7119,11.63153 -1.19466,5.06745 -2.40036,7.91138 -3.63398,8.5716 -5.09862,2.72869 -46.66106,-1.11747 -76.74459,-7.10189 l -10.26695,-2.04238 -8.23305,3.19918 c -7.48655,2.90911 -9.50244,3.24358 -22.23305,3.68883 -8.18158,0.28615 -17.11701,0.0132 -21.5,-0.65683 -6.72793,-1.02845 -37.81572,-8.32346 -41.50718,-9.74001 -0.88233,-0.33858 -1.74978,0.1792 -2.15675,1.28738 -0.37444,1.01956 -2.88688,4.04928 -5.5832,6.73272 -4.23167,4.21144 -5.20001,4.74169 -7.07764,3.87564 -1.19637,-0.55183 -7.35023,-1.97408 -13.67523,-3.16055 -23.664946,-4.46793 -11.234109,-26.85867 -13.45445,-43.09406 -0.80627,-5.775 -2.16987,-17.38132 -3.03023,-25.79182 -1.37744,-13.46522 -6.85098,-46.87718 -7.84172,-47.86792 -0.80766,-0.80766 -23.86888,2.893 -34.65441,5.56103 l -11.48083,2.84003 -0.14403,28.37934 c -0.17177,33.84459 -1.94346,83.77528 -3.17144,89.37934 -0.48207,2.2 -2.35615,7.69929 -4.16461,12.22065 -2.54693,6.36762 -4.37961,9.24163 -8.13035,12.75 -2.66323,2.49114 -5.47494,4.52935 -6.24824,4.52935 -0.7733,0 -3.47424,-2.21112 -6.00211,-4.91361 z M 88.71429,689.99847 c 8.29233,-2.37865 32.09635,-3.50628 42.86593,-2.03061 l 6.86593,0.94078 1.60511,-3.59466 c 2.20175,-4.93087 2.07559,-30.3536 -0.20643,-41.59466 -2.3229,-11.44246 -8.29582,-26.4119 -10.9849,-27.53056 -6.28051,-2.6127 -54.50831,-10.79038 -56.47346,-9.57585 -0.45049,0.27841 0.43541,7.39125 1.96866,15.80631 4.61664,25.33786 5.97708,53.68273 3.24942,67.70225 -0.62947,3.23534 -0.54494,3.36496 1.72391,2.64355 1.31221,-0.41723 5.53583,-1.66218 9.38583,-2.76655 z m 253.55477,-39.23104 c 0.7196,-8.22355 1.33915,-22.59977 1.37679,-31.94717 l 0.0684,-16.99527 -3.78786,-0.79508 c -7.95528,-1.66981 -21.69901,-8.30511 -34.07531,-16.45112 -7.07475,-4.65655 -13.0675,-8.26213 -13.31723,-8.0124 -0.24974,0.24973 0.70089,2.73326 2.11251,5.51895 1.41161,2.78568 5.06936,10.81793 8.12833,17.84943 3.05897,7.0315 7.03267,15.48455 8.83046,18.78455 1.79779,3.3 5.65369,11.4 8.56866,18 2.91498,6.6 8.47921,18.3 12.36496,26 l 7.06501,14 0.67844,-5.5 c 0.37315,-3.025 1.26721,-12.22835 1.9868,-20.45189 z m 97.69523,-116.54405 c 12.7875,-0.002 23.25,-0.38063 23.25,-0.84089 0,-1.10617 -14.35446,-5.91653 -36.25394,-12.14915 -9.76467,-2.77904 -22.08085,-6.61907 -27.36929,-8.53341 -5.28844,-1.91433 -9.84874,-3.48061 -10.13399,-3.48061 -0.49797,0 0.16626,9.54173 1.45468,20.89647 l 0.61233,5.39647 12.59511,-0.64241 c 6.9273,-0.35333 23.0576,-0.64424 35.8451,-0.64647 z m 232.44162,208.29783 c -14.96346,-2.54294 -18.10116,-4.83339 -25.51338,-11.58005 -9.8235,-8.95125 -15.63449,-16.92228 -17.69083,-24.2668 -1.02644,-3.6661 -1.05388,-5.06661 -0.12405,-6.33122 5.44567,-8.83965 10.60223,-8.0446 17.4536,-6.40189 4.65843,1.13943 9.2032,1.69979 10.6536,1.31356 2.52155,-0.67146 2.5316,-0.72012 3.22065,-15.60453 3.0265,-65.37553 1.86119,-103.11802 0.81284,-136.37657 l -0.3041,-9.64738 c 7.16615,-21.47054 36.81025,-16.69559 41.71501,-3.40701 2.43451,7.3892 8.304,17.67358 24.87238,43.5808 15.84591,24.77754 23.36114,38.12504 39.42975,70.02962 7.5806,15.05144 14.07361,27.3715 14.42891,27.37792 1.0297,0.0186 2.366,-27.92337 2.2234,-46.48834 -0.2634,-34.29255 -3.0224,-51.96855 -12.99188,-83.23715 -10.85346,-34.04102 -17.1873,-47.25001 -36.81505,-76.77644 -17.68162,-26.59883 -40.76272,-51.65103 -63.06247,-68.44794 -16.53372,-12.45373 -25.34879,-17.81269 -31.4544,-19.12211 -2.66589,-0.57173 -5.59571,-1.86674 -6.5107,-2.87779 -1.56161,-1.72557 -1.5174,-1.98238 0.72099,-4.18843 1.31153,-1.29257 3.13929,-3.56997 4.06168,-5.06088 3.01667,-4.87597 14.36822,-5.89652 23.63839,-2.12517 1.90078,0.77328 7.16328,1.78174 11.69445,2.24102 9.26019,0.93861 12.11473,2.1889 26.34959,11.54116 28.18498,18.51745 57.11269,47.59089 76.6675,77.05373 20.0474,30.20502 27.4448,45.42833 37.1734,76.5 8.4647,27.03498 8.6741,27.83856 10.5531,40.5 3.7305,25.13788 4.8381,45.90084 3.5597,66.73337 -1.352,22.03191 -6.19758,45.57416 -7.97228,55.26663 -7.22482,38.01878 -10.46526,41.68543 -15.62172,44.19223 -0.8221,0.31544 -8.28518,1.10545 -9.48558,0.5209 -9.10584,0.1452 -8.46607,1.64664 -21.30099,-13.06461 -4.3125,-4.96001 -9.59051,-12.67067 -11.91072,-16.96471 -7.31746,-13.54252 -18.14373,-24.82647 -30.16774,-49.26916 -12.19016,-24.78043 -23.49961,-46.31959 -25.22863,-48.04861 -0.71835,-0.71835 -1.22075,5.69674 -1.62877,20.7976 -0.87117,32.24221 -3.50526,69.39196 -5.76714,81.33636 -3.41752,18.0471 -5.93183,26.07099 -8.54209,27.2603 -5.09644,4.00241 -11.98984,3.86007 -17.13642,3.04159 z M 589.71429,666.7387 c -23.97884,-4.45364 -39.79891,-10.68519 -49.83478,-19.63003 -15.28159,-13.62025 -18.14097,-27.05635 -10.02433,-47.10388 1.97781,-4.88505 3.43021,-8.9727 3.22756,-9.08369 -0.20265,-0.11098 -2.16845,-1.16196 -4.36845,-2.33552 -4.77763,-2.54855 -7.9618,-7.39017 -7.10511,-10.80349 0.99279,-3.95561 10.27785,-13.21672 18.20351,-18.15656 8.84113,-5.51044 18.61831,-8.70606 34.9016,-11.4074 14.27302,-2.36784 22.53697,-2.48946 32,-0.47094 3.85,0.82122 9.86324,1.95515 13.36276,2.51984 11.77304,1.8997 19.52351,8.00429 25.61083,20.17213 5.16634,10.32691 7.37537,18.88324 8.34176,32.31053 1.60016,22.23327 -0.27828,31.21812 -8.94207,42.77111 -8.64402,11.52662 -18.11655,17.43876 -33.87328,21.1415 -7.7013,1.80975 -12.08358,1.82533 -21.5,0.0764 z m 9.81179,-19.66398 c 13.71205,-3.69991 19.38442,-11.16176 20.39988,-26.83546 1.30767,-20.18422 -4.6353,-43.12952 -13.70181,-52.9015 -3.1201,-3.36287 -3.17403,-3.37781 -9.75808,-2.70325 -5.99149,0.61384 -6.93512,1.03022 -9.92995,4.38156 -5.46839,6.11936 -20.66781,32.54594 -23.23074,40.39029 -1.82224,5.57734 -1.53482,13.02142 0.69765,18.06827 1.08846,2.46064 4.468,6.92344 7.5101,9.91732 5.29234,5.20846 15.61262,11.74451 18.63306,11.80072 0.78755,0.0147 5.0085,-0.93842 9.37989,-2.11795 z"
         id="path3010"
         inkscape:connector-curvature="0"
         sodipodi:nodetypes="ssssscsscssssscsssssccssscsssssssssscssssssssssssssssssscsscssscssccssssssssssssscsssssssssssssssccccscssccssssssssscssssscsssscssccssscsssssssscssscsssscscsscssssscscccssssscscccsccsssccssssssssssssssssssccccsssssccssscssssssssssssssssssscs" />
    </g>
  </g>
</svg>
